<?xml version="1.0" encoding="iso-8859-1"?>
<!-- Generator: Adobe Illustrator 19.0.0, SVG Export Plug-In . SVG Version: 6.00 Build 0)  -->
<svg version="1.1" id="Layer_1" xmlns="http://www.w3.org/2000/svg" xmlns:xlink="http://www.w3.org/1999/xlink" x="0px" y="0px"
	 viewBox="0 0 503.467 503.467" style="enable-background:new 0 0 503.467 503.467;" xml:space="preserve">
<g transform="translate(5 1)">
	<polygon style="fill:#AAB1BA;" points="221.334,37.4 306.667,37.4 306.667,3.267 221.334,3.267 	"/>
	<path style="fill:#FFD0A1;" d="M392.001,438.467c6.827,11.947-6.827,25.6-17.067,25.6H153.067c-11.093,0-23.893-14.507-17.067-25.6
		l34.133-59.733c5.12-11.093,14.507-17.067,25.6-17.067h42.667h51.2h42.667c10.24,0,19.627,4.267,25.6,17.067L392.001,438.467
		L392.001,438.467z"/>
	<g>
		<path style="fill:#ECF4F7;" d="M460.267,71.533l-34.133,76.8c0,0-13.653,25.6-34.133,25.6h-1.707
			c0.853-20.48,1.707-43.52,1.707-68.267V71.533H460.267z"/>
		<path style="fill:#ECF4F7;" d="M289.601,361.667h-51.2h-42.667c-10.24,0-20.48-2.56-25.6-17.067c0,0-34.133-68.267-34.133-238.933
			h-17.92h-16.213c-25.6,68.267-25.6,128-34.133,170.667c-5.973,29.013-36.693,17.067-34.133,0
			C42.134,216.6,50.667,139.8,80.534,71.533h311.467v34.133c0,24.747-0.853,47.787-1.707,68.267
			c-7.68,121.173-32.427,170.667-32.427,170.667c-4.267,11.947-14.507,17.067-25.6,17.067H289.601z"/>
	</g>
	<polygon style="fill:#AAB1BA;" points="153.067,498.2 374.934,498.2 374.934,464.067 153.067,464.067 	"/>
</g>
<path style="fill:#51565F;" d="M379.934,503.467H158.067c-2.56,0-4.267-1.707-4.267-4.267v-30.72
	c-5.973-1.707-12.8-5.973-16.213-12.8c-3.413-6.827-3.413-13.653,0-18.773l34.133-59.733c2.56-5.973,6.827-11.093,12.8-14.507
	c-5.12-2.56-9.387-7.68-12.8-16.213c-0.853-2.56-34.133-69.973-34.133-236.373c-4.267,0-12.8,0-27.307,0
	c-17.067,46.08-22.187,88.747-26.453,122.88c-1.707,15.36-3.413,30.72-6.827,43.52c-3.413,17.92-15.36,22.187-24.747,20.48
	c-9.387-1.707-19.627-10.24-17.92-22.187l2.56-17.92c7.68-55.467,17.067-125.44,44.373-187.733c0.853-1.707,2.56-2.56,4.267-2.56
	h379.733c1.707,0,2.56,0.853,3.413,1.707c0.853,0.853,0.853,2.56,0,4.267l-34.133,76.8c-0.853,2.56-3.413,3.413-5.973,2.56
	c-2.56-0.853-3.413-3.413-2.56-5.973l31.573-70.827H87.24c-25.6,60.587-34.987,128-42.667,182.613l-2.56,17.92
	c-0.853,5.973,5.12,11.093,11.093,12.8c7.68,1.707,12.8-4.267,15.36-13.653c2.56-12.8,4.267-27.307,5.973-42.667
	c4.267-35.84,10.24-80.213,28.16-128c0.853-1.707,2.56-2.56,4.267-2.56c11.093,0,29.013,0,31.573,0c0.853,0,1.707,0,1.707,0
	c2.56-0.853,5.12,1.707,5.12,4.267c0,167.253,33.28,236.373,34.133,237.227c4.267,11.947,11.947,14.507,22.187,14.507h37.547
	L222.921,243.2c0-2.56,1.707-4.267,3.413-5.12c2.56,0,4.267,1.707,5.12,3.413l16.213,116.053h43.52l16.213-116.053
	c0-2.56,2.56-4.267,5.12-3.413c2.56,0,4.267,2.56,3.413,5.12l-16.213,114.347h3.413c2.56,0,4.267,1.707,4.267,4.267
	c0,2.56-1.707,4.267-4.267,4.267h-8.533l0,0h-51.2l0,0h-42.667c-9.387,0-17.067,5.12-21.333,14.507l-34.133,59.733
	c-2.56,4.267-0.853,7.68,0,10.24c2.56,5.12,8.533,8.533,12.8,8.533h187.733c2.56,0,4.267,1.707,4.267,4.267
	s-1.707,4.267-4.267,4.267H162.334v25.6h213.333v-28.16c0-0.853,0.853-2.56,0.853-3.413s1.707-0.853,3.413-0.853
	c4.267,0,10.24-3.413,12.8-8.533c1.707-2.56,2.56-6.827,0.853-11.093l-34.133-59.733c-5.12-10.24-11.947-14.507-22.187-14.507
	c-2.56,0-4.267-1.707-4.267-4.267s1.707-4.267,4.267-4.267c5.973,0,17.067-1.707,21.333-14.507
	c0.853-0.853,34.133-69.973,34.133-237.227c0-2.56,1.707-4.267,4.267-4.267s4.267,1.707,4.267,4.267
	c0,169.813-33.28,238.08-34.987,240.64c-2.56,6.827-6.827,11.947-12.8,15.36c5.12,3.413,9.387,8.533,12.8,15.36l34.133,59.733
	c3.413,5.973,3.413,12.8-0.853,19.627c-3.413,5.973-9.387,10.24-15.36,11.947v30.72C384.201,501.76,382.494,503.467,379.934,503.467
	z M379.934,42.667H158.067c-2.56,0-4.267-1.707-4.267-4.267s1.707-4.267,4.267-4.267h64V4.267c0-2.56,1.707-4.267,4.267-4.267
	h85.333c2.56,0,4.267,1.707,4.267,4.267v29.867h64c2.56,0,4.267,1.707,4.267,4.267S382.494,42.667,379.934,42.667z M230.601,34.133
	h76.8v-25.6h-76.8V34.133z"/>
<g>
</g>
<g>
</g>
<g>
</g>
<g>
</g>
<g>
</g>
<g>
</g>
<g>
</g>
<g>
</g>
<g>
</g>
<g>
</g>
<g>
</g>
<g>
</g>
<g>
</g>
<g>
</g>
<g>
</g>
</svg>
