<?xml version="1.0" encoding="iso-8859-1"?>
<!-- Generator: Adobe Illustrator 19.0.0, SVG Export Plug-In . SVG Version: 6.00 Build 0)  -->
<svg version="1.1" id="Layer_1" xmlns="http://www.w3.org/2000/svg" xmlns:xlink="http://www.w3.org/1999/xlink" x="0px" y="0px"
	 viewBox="0 0 504.32 504.32" style="enable-background:new 0 0 504.32 504.32;" xml:space="preserve">
<g transform="translate(1 1)">
	<path style="fill:#FFD0A1;" d="M498.627,243.053v187.733c0,18.773-15.36,34.133-34.133,34.133H327.96V174.787
		c0-18.773-15.36-34.133-34.133-34.133H276.76c9.387-1.707,17.92-8.533,17.067-17.067c-0.853-8.533-17.067-102.4-17.067-102.4
		C274.2,10.093,284.44,4.12,293.827,4.12h85.333c9.387,0,19.627,5.973,17.067,17.067l-17.067,102.4c0,0-2.56,17.067,17.067,17.067
		C396.227,140.653,498.627,140.653,498.627,243.053"/>
	<path style="fill:#FFD0A1;" d="M293.827,140.653c18.773,0,34.133,15.36,34.133,34.133V464.92c0,18.773-15.36,34.133-34.133,34.133
		h-256c-18.773,0-34.133-15.36-34.133-34.133V174.787c0-18.773,15.36-34.133,34.133-34.133h68.267
		c18.773,0,17.067-17.067,17.067-17.067l-17.067-102.4c-2.56-11.093,7.68-17.067,17.067-17.067h85.333
		c9.387,0,19.627,5.973,17.067,17.067l-17.067,102.4c0,0-2.56,17.067,17.067,17.067h51.2H293.827z"/>
</g>
<path style="fill:#51565F;" d="M294.827,504.32h-256c-21.333,0-38.4-17.067-38.4-38.4V175.787c0-21.333,17.067-38.4,38.4-38.4
	h68.267c4.267,0,7.68-0.853,10.24-3.413c3.413-3.413,2.56-8.533,2.56-9.387l-17.067-102.4c-0.853-5.12,0-10.24,3.413-14.507
	C110.507,2.56,117.333,0,124.16,0h85.333c6.827,0,14.507,3.413,17.92,7.68c3.413,4.267,4.267,9.387,3.413,14.507l-17.067,102.4l0,0
	c0,0-0.853,5.12,2.56,8.533c1.707,2.56,5.973,3.413,10.24,3.413h68.267c21.333,0,38.4,17.067,38.4,38.4v290.133
	C333.227,487.253,316.16,504.32,294.827,504.32z M38.827,145.92c-16.213,0-29.867,13.653-29.867,29.867V465.92
	c0,16.213,13.653,29.867,29.867,29.867h256c16.213,0,29.867-13.653,29.867-29.867V175.787c0-16.213-13.653-29.867-29.867-29.867
	H226.56c-7.68,0-12.8-2.56-17.067-6.827c-5.973-6.827-4.267-15.36-4.267-15.36l17.067-102.4c0.853-3.413,0-5.12-1.707-7.68
	c-2.56-2.56-6.827-4.267-11.093-4.267H124.16c-4.267,0-8.533,1.707-11.093,4.267c-1.707,1.707-2.56,4.267-1.707,7.68l17.067,102.4
	c0,0.853,0.853,9.387-5.12,15.36c-3.413,4.267-9.387,5.973-16.213,5.973H38.827V145.92z M465.493,470.187h-102.4
	c-2.56,0-4.267-1.707-4.267-4.267s1.707-4.267,4.267-4.267h102.4c16.213,0,29.867-13.653,29.867-29.867V244.053
	c0-97.28-93.867-98.133-98.133-98.133c-7.68,0-12.8-2.56-17.067-6.827c-5.973-6.827-4.267-15.36-4.267-15.36l17.067-102.4
	c0.853-3.413,0-5.12-1.707-7.68c-2.56-2.56-6.827-4.267-11.093-4.267h-85.333c-4.267,0-8.533,1.707-11.093,4.267
	c-1.707,1.707-2.56,4.267-1.707,7.68l14.507,85.333c0,2.56-0.853,4.267-3.413,5.12c-2.56,0-4.267-0.853-5.12-3.413L273.493,23.04
	c-0.853-5.12,0-10.24,3.413-14.507c4.267-5.12,11.093-7.68,17.92-7.68h85.333c6.827,0,14.507,3.413,17.92,7.68
	c3.413,4.267,4.267,9.387,3.413,14.507l-17.067,102.4l0,0c0,0-0.853,5.12,2.56,8.533c1.707,2.56,5.973,3.413,10.24,3.413
	c0.853,0,106.667,0.853,106.667,106.667v187.733C503.893,453.12,486.827,470.187,465.493,470.187z M465.493,282.453
	c-2.56,0-4.267-1.707-4.267-4.267v-34.133c0-15.36-5.973-30.72-16.213-42.667c-1.707-1.707-1.707-4.267,0-5.973
	c1.707-1.707,4.267-1.707,5.973,0c11.947,13.653,17.92,29.867,17.92,47.787v34.133C469.76,280.747,468.053,282.453,465.493,282.453z
	 M294.827,282.453c-2.56,0-4.267-1.707-4.267-4.267V209.92c0-2.56,1.707-4.267,4.267-4.267s4.267,1.707,4.267,4.267v68.267
	C299.093,280.747,297.387,282.453,294.827,282.453z M294.827,188.587c-2.56,0-4.267-1.707-4.267-4.267
	c0-2.56-1.707-4.267-4.267-4.267s-4.267-1.707-4.267-4.267s1.707-4.267,4.267-4.267c6.827,0,12.8,5.973,12.8,12.8
	C299.093,186.88,297.387,188.587,294.827,188.587z M421.973,185.173l-17.067-4.267l2.56-8.533l17.067,4.267L421.973,185.173z
	 M337.493,77.653c-11.947,0-21.333-9.387-21.333-21.333s9.387-21.333,21.333-21.333s21.333,9.387,21.333,21.333
	S349.44,77.653,337.493,77.653z M337.493,43.52c-6.827,0-12.8,5.973-12.8,12.8s5.973,12.8,12.8,12.8s12.8-5.973,12.8-12.8
	S344.32,43.52,337.493,43.52z M166.827,77.653c-11.947,0-21.333-9.387-21.333-21.333s9.387-21.333,21.333-21.333
	c11.947,0,21.333,9.387,21.333,21.333S178.773,77.653,166.827,77.653z M166.827,43.52c-6.827,0-12.8,5.973-12.8,12.8
	s5.973,12.8,12.8,12.8s12.8-5.973,12.8-12.8S173.653,43.52,166.827,43.52z"/>
<g>
</g>
<g>
</g>
<g>
</g>
<g>
</g>
<g>
</g>
<g>
</g>
<g>
</g>
<g>
</g>
<g>
</g>
<g>
</g>
<g>
</g>
<g>
</g>
<g>
</g>
<g>
</g>
<g>
</g>
</svg>
