<?xml version="1.0" encoding="iso-8859-1"?>
<!-- Generator: Adobe Illustrator 19.0.0, SVG Export Plug-In . SVG Version: 6.00 Build 0)  -->
<svg version="1.1" id="Layer_1" xmlns="http://www.w3.org/2000/svg" xmlns:xlink="http://www.w3.org/1999/xlink" x="0px" y="0px"
	 viewBox="0 0 503.467 503.467" style="enable-background:new 0 0 503.467 503.467;" xml:space="preserve">
<g transform="translate(7 1)">
	<path style="fill:#ECF4F7;" d="M244.84,54.467v119.467h-128C116.84,103.107,174.013,54.467,244.84,54.467z M244.84,173.933h128
		v102.4v85.333c0,0-68.267,17.067-128,0s-128,0-128,0v-153.6H82.707V344.6c0,10.24-6.827,17.067-17.067,17.067
		S48.573,354.84,48.573,344.6V191c0-9.387,6.827-17.067,17.067-17.067h51.2H244.84z M372.84,173.933h-128V54.467
		C315.667,54.467,372.84,103.107,372.84,173.933z"/>
	<path style="fill:#FFB9DC;" d="M244.84,3.267c5.12,0,8.533,4.267,8.533,8.533s-3.413,8.533-8.533,8.533
		c-5.12,0-8.533-4.267-8.533-8.533S239.72,3.267,244.84,3.267"/>
	<path style="fill:#FFD0A1;" d="M338.707,464.067H150.973c-18.773,0-34.133-15.36-34.133-34.133v-68.267c0,0,68.267-17.067,128,0
		s128,0,128,0v68.267C372.84,448.707,357.48,464.067,338.707,464.067"/>
	<path style="fill:#ECF4F7;" d="M441.107,173.933l-34.133,76.8c0,0-11.947,25.6-34.133,25.6v-102.4H441.107z"/>
	<polygon style="fill:#AAB1BA;" points="150.973,498.2 338.707,498.2 338.707,464.067 150.973,464.067 	"/>
</g>
<path style="fill:#51565F;" d="M345.707,503.467H157.973c-2.56,0-4.267-1.707-4.267-4.267v-29.867
	c-18.773-2.56-34.133-18.773-34.133-38.4v-68.267c0-1.707,1.707-3.413,3.413-4.267c2.56-0.853,69.973-17.067,130.56,0
	c50.347,14.507,108.373,3.413,122.88,0.853V209.067c0-2.56,1.707-4.267,4.267-4.267c2.56,0,4.267,1.707,4.267,4.267v221.867
	c0,19.627-15.36,35.84-34.133,38.4V499.2C349.973,501.76,348.267,503.467,345.707,503.467z M162.24,494.933h179.2v-29.867
	c0-2.56,1.707-4.267,4.267-4.267c16.213,0,29.867-13.653,29.867-29.867v-63.147c-17.067,3.413-73.387,13.653-124.587-0.853
	c-50.347-14.507-108.373-3.413-122.88-0.853v64.853c0,16.213,13.653,29.867,29.867,29.867h153.6c2.56,0,4.267,1.707,4.267,4.267
	c0,2.56-1.707,4.267-4.267,4.267H162.24V494.933z M72.64,366.933c-12.8,0-21.333-8.533-21.333-21.333V192
	c0-11.947,9.387-21.333,21.333-21.333h46.933c2.56-67.413,56.32-117.76,128-119.467V24.747c-5.12-1.707-8.533-6.827-8.533-11.947
	c0-6.827,5.973-12.8,12.8-12.8c6.827,0,12.8,5.973,12.8,12.8c0,5.973-3.413,10.24-8.533,11.947v145.92h119.467
	C373.867,117.76,338.88,76.8,285.12,64c-2.56-0.853-3.413-2.56-3.413-5.12c0.853-2.56,2.56-3.413,5.12-3.413
	c57.173,13.653,95.573,58.88,97.28,115.2h64c1.707,0,2.56,0.853,3.413,1.707c0.853,0.853,0.853,2.56,0,4.267l-34.133,76.8
	c-0.853,2.56-3.413,3.413-5.973,2.56c-2.56-0.853-3.413-3.413-2.56-5.973l31.573-70.827H255.253v128h89.6
	c2.56,0,4.267,1.707,4.267,4.267c0,2.56-1.707,4.267-4.267,4.267H157.12c-2.56,0-4.267-1.707-4.267-4.267
	c0-2.56,1.707-4.267,4.267-4.267h89.6v-128H72.64c-7.68,0-12.8,5.12-12.8,12.8v153.6c0,7.68,5.12,12.8,12.8,12.8
	s12.8-5.12,12.8-12.8V209.067c0-2.56,1.707-4.267,4.267-4.267h34.133c2.56,0,4.267,1.707,4.267,4.267v119.467
	c0,2.56-1.707,4.267-4.267,4.267s-4.267-1.707-4.267-4.267v-115.2h-25.6V345.6C93.973,358.4,85.44,366.933,72.64,366.933z
	 M128.107,170.667h119.467V59.733C181.013,61.44,130.667,108.373,128.107,170.667z M251.84,8.533c-2.56,0-4.267,1.707-4.267,4.267
	s1.707,4.267,4.267,4.267c2.56,0,4.267-1.707,4.267-4.267S254.4,8.533,251.84,8.533z"/>
<g>
</g>
<g>
</g>
<g>
</g>
<g>
</g>
<g>
</g>
<g>
</g>
<g>
</g>
<g>
</g>
<g>
</g>
<g>
</g>
<g>
</g>
<g>
</g>
<g>
</g>
<g>
</g>
<g>
</g>
</svg>
