<?xml version="1.0" encoding="iso-8859-1"?>
<!-- Generator: Adobe Illustrator 19.0.0, SVG Export Plug-In . SVG Version: 6.00 Build 0)  -->
<svg version="1.1" id="Layer_1" xmlns="http://www.w3.org/2000/svg" xmlns:xlink="http://www.w3.org/1999/xlink" x="0px" y="0px"
	 viewBox="0 0 503.787 503.787" style="enable-background:new 0 0 503.787 503.787;" xml:space="preserve">
<path style="fill:#ECF4F7;" d="M55.787,303.688H448.32c0,68.267-51.2,119.467-119.467,119.467h-153.6
	C106.987,423.154,55.787,371.954,55.787,303.688z M4.587,269.554H499.52c0,18.773-15.36,34.133-34.133,34.133H448.32H55.787H38.72
	C19.947,303.688,4.587,288.328,4.587,269.554z"/>
<path style="fill:#51565F;" d="M328.853,427.421h-153.6c-69.12,0-121.173-51.2-123.733-119.467h-12.8
	c-21.333,0-38.4-17.067-38.4-38.4c0-2.56,1.707-4.267,4.267-4.267H499.52c2.56,0,4.267,1.707,4.267,4.267
	c0,21.333-17.067,38.4-38.4,38.4h-12.8C450.027,376.221,397.973,427.421,328.853,427.421z M60.053,307.954
	c1.707,63.147,51.2,110.933,115.2,110.933h153.6c65.707,0,115.2-49.493,115.2-115.2c0-2.56,1.707-4.267,4.267-4.267h17.067
	c15.36,0,27.307-11.093,29.867-25.6H9.707c1.707,14.507,14.507,25.6,29.867,25.6H415.04c2.56,0,4.267,1.707,4.267,4.267
	c0,2.56-1.707,4.267-4.267,4.267H60.053z M124.053,239.688c-0.853,0-0.853,0-1.707,0L2.88,188.488
	c-2.56-0.853-3.413-3.413-2.56-5.973c0.853-2.56,3.413-3.413,5.973-2.56l119.467,51.2c2.56,0.853,3.413,3.413,2.56,5.973
	C127.467,238.834,125.76,239.688,124.053,239.688z M311.787,222.621c-1.707,0-3.413-0.853-3.413-2.56
	c-0.853-1.707,0-4.267,1.707-5.973c0,0,14.507-7.68,14.507-22.187c0-6.827-3.413-10.24-7.68-13.653
	c-4.267-4.267-9.387-9.387-9.387-20.48c0-19.627,18.773-29.013,19.627-29.013c1.707-0.853,4.267,0,5.973,1.707
	c1.707,1.707,0,4.267-1.707,5.973c0,0-14.507,7.68-14.507,22.187c0,6.827,3.413,10.24,7.68,13.653
	c4.267,4.267,9.387,9.387,9.387,20.48c0,19.627-18.773,29.013-19.627,29.013C313.493,222.621,312.64,222.621,311.787,222.621z
	 M175.253,222.621c-1.707,0-3.413-0.853-3.413-2.56c-0.853-1.707,0-4.267,1.707-5.973c0,0,14.507-7.68,14.507-22.187
	c0-6.827-3.413-10.24-7.68-13.653c-4.267-4.267-9.387-9.387-9.387-20.48c0-19.627,18.773-29.013,19.627-29.013
	c1.707-0.853,4.267,0,5.973,1.707c0.853,1.707,0,4.267-1.707,5.973c0,0-14.507,7.68-14.507,22.187c0,6.827,3.413,10.24,7.68,13.653
	c4.267,4.267,9.387,9.387,9.387,20.48c0,19.627-18.773,29.013-19.627,29.013C176.96,222.621,176.107,222.621,175.253,222.621z
	 M243.52,205.554c-1.707,0-3.413-0.853-3.413-2.56c-0.853-1.707,0-4.267,1.707-5.973c0,0,14.507-7.68,14.507-22.187
	c0-6.827-3.413-10.24-7.68-13.653c-4.267-4.267-9.387-9.387-9.387-20.48s5.12-15.36,9.387-20.48c4.267-4.267,7.68-7.68,7.68-13.653
	c0-14.507-14.507-21.333-14.507-22.187c-1.707-0.853-2.56-3.413-1.707-5.973c0.853-1.707,3.413-2.56,5.973-1.707
	c0.853,0,19.627,10.24,19.627,29.013c0,10.24-5.12,15.36-9.387,20.48c-4.267,4.267-7.68,7.68-7.68,13.653
	c0,5.973,3.413,10.24,7.68,13.653c4.267,4.267,9.387,9.387,9.387,20.48c0,19.627-18.773,29.013-19.627,29.013
	C245.227,205.554,244.373,205.554,243.52,205.554z"/>
<g>
</g>
<g>
</g>
<g>
</g>
<g>
</g>
<g>
</g>
<g>
</g>
<g>
</g>
<g>
</g>
<g>
</g>
<g>
</g>
<g>
</g>
<g>
</g>
<g>
</g>
<g>
</g>
<g>
</g>
</svg>
